#!OML:ASF F:\VICON\USERDATA\INSTALL\rory3\rory3.ASF
:FULLY-SPECIFIED
:DEGREES
2393
root 16.2842 17.7902 -10.018 515.503 -84.451 -873.021
lowerback 11.9671 2.2733 2.64835
upperback 1.16387 3.36801 1.12767
thorax -5.39829 1.58054 -0.855851
lowerneck -20.7448 -4.36748 -11.5536
upperneck 33.1756 -5.82654 7.97824
head 15.8487 -3.05832 4.22617
rclavicle 3.11098e-014 9.74045e-015
rhumerus -29.5894 -9.8871 -84.1823
rradius 33.2832
rwrist -1.96006
rhand -17.8757 7.13076
rfingers 7.12502
rthumb 8.39032 -22.6826
lclavicle 3.11098e-014 9.74045e-015
lhumerus -37.0186 2.33238 84.557
lradius 32.8002
lwrist -3.81941
lhand -19.5306 24.9692
lfingers 7.12502
lthumb 6.793 54.8402
rfemur 5.97946 2.75815 27.9652
rtibia 15.964
rfoot -18.331 2.01771
rtoes 5.86528
lfemur -27.1945 -0.890887 -19.7524
ltibia 19.5468
lfoot -5.97272 -4.94548
ltoes -27.4201
2394
root 16.202 17.7848 -10.0164 516.531 -84.2608 -873.992
lowerback 11.926 2.41524 2.71458
upperback 1.19051 3.55859 1.05872
thorax -5.33297 1.67339 -0.992476
lowerneck -20.769 -4.40877 -11.492
upperneck 33.082 -5.87811 7.93902
head 15.8121 -3.07128 4.18421
rclavicle 1.53561e-014 -9.74045e-015
rhumerus -29.2439 -9.54297 -84.369
rradius 33.454
rwrist -1.938
rhand -18.008 7.31838
rfingers 7.12502
rthumb 8.26257 -22.5
lclavicle 1.53561e-014 -9.74045e-015
lhumerus -37.0546 2.22281 84.5245
lradius 32.3095
lwrist -4.25897
lhand -18.404 24.5993
lfingers 7.12502
lthumb 7.88045 54.4325
rfemur 6.48977 2.60825 27.8973
rtibia 15.383
rfoot -18.2583 2.11907
rtoes 4.3533
lfemur -27.2826 -1.2026 -19.7186
ltibia 18.1316
lfoot -6.06203 -5.25971
ltoes -25.8194
2395
root 16.1181 17.7835 -10.017 516.785 -84.0466 -874.17
lowerback 11.8947 2.51902 2.82519
upperback 1.17507 3.70794 1.01121
thorax -5.31657 1.7444 -1.12626
lowerneck -20.7477 -4.39426 -11.2494
upperneck 33.0402 -5.89324 7.79554
head 15.7722 -3.06437 4.07363
rclavicle 1.78906e-015 -1.15295e-014
rhumerus -28.9273 -9.11056 -84.6312
rradius 33.5809
rwrist -1.93031
rhand -18.1423 7.25642
rfingers 7.12502
rthumb 8.13301 -22.5671
lclavicle 1.78906e-015 -1.15295e-014
lhumerus -37.1261 2.62331 84.248
lradius 31.7694
lwrist -4.93715
lhand -18.6077 24.4383
lfingers 7.12502
lthumb 7.68385 54.2787
rfemur 7.001 2.68349 27.9462
rtibia 14.7954
rfoot -18.1114 2.25819
rtoes 4.22765
lfemur -27.388 -1.36057 -19.6192
ltibia 16.8325
lfoot -6.10505 -5.55952
ltoes -23.9121
2396
root 16.032 17.7826 -10.015 517.213 -83.7886 -874.472
lowerback 11.7868 2.63407 2.90195
upperback 1.14563 3.86933 1.0287
thorax -5.27789 1.82327 -1.1713
lowerneck -20.7339 -4.40994 -11.3376
upperneck 33.0757 -5.89976 7.82515
head 15.7924 -3.07591 4.1023
rclavicle -1.60519e-014 -1.59028e-015
rhumerus -28.6327 -9.15234 -84.6471
rradius 33.6294
rwrist -1.0822
rhand -17.4512 7.39206
rfingers 7.12502
rthumb 8.79991 -22.4045
lclavicle -1.60519e-014 -1.59028e-015
lhumerus -37.2363 3.0585 84.0687
lradius 31.2102
lwrist -5.59367
lhand -18.6627 24.4344
lfingers 7.12502
lthumb 7.63071 54.2767
rfemur 7.4048 2.92912 27.9919
rtibia 14.3247
rfoot -17.9473 2.50438
rtoes 5.89769
lfemur -27.5797 -1.23731 -19.647
ltibia 15.6377
lfoot -6.25489 -5.69693
ltoes -23.893
2397
root 15.946 17.7747 -10.0102 516.701 -83.5844 -873.762
lowerback 11.575 2.72315 3.11572
upperback 1.13744 4.00745 1.02327
thorax -5.14843 1.88969 -1.30597
lowerneck -20.7383 -4.46037 -11.4607
upperneck 33.0402 -5.99352 8.012
head 15.8026 -3.10365 4.18652
rclavicle 4.22417e-015 -3.97569e-015
rhumerus -28.2738 -9.74262 -84.618
rradius 33.6108
rwrist 0.499184
rhand -16.6771 7.57589
rfingers 7.12502
rthumb 9.54688 -22.1878
lclavicle 4.22417e-015 -3.97569e-015
lhumerus -37.2538 3.16787 83.9197
lradius 30.7039
lwrist -5.70136
lhand -18.3681 24.4144
lfingers 7.12502
lthumb 7.9151 54.2462
rfemur 7.68909 3.00291 28.0905
rtibia 13.9243
rfoot -17.829 2.77518
rtoes 7.81303
lfemur -27.9057 -0.693073 -19.8259
ltibia 14.6008
lfoot -6.62029 -6.00963
ltoes -25.8219
